<svg width="346" height="159" viewBox="0 0 346 159" fill="none" xmlns="http://www.w3.org/2000/svg">
<path d="M18.12 135V123.8H20.728L25.368 131.416H23.992L28.504 123.8H31.112L31.144 135H28.232L28.2 128.232H28.696L25.32 133.896H23.912L20.44 128.232H21.048V135H18.12ZM39.0336 135.224C38.1376 135.224 37.311 135.08 36.5536 134.792C35.7963 134.504 35.135 134.099 34.5696 133.576C34.015 133.043 33.583 132.424 33.2736 131.72C32.9643 131.016 32.8096 130.243 32.8096 129.4C32.8096 128.557 32.9643 127.784 33.2736 127.08C33.583 126.376 34.015 125.763 34.5696 125.24C35.135 124.707 35.7963 124.296 36.5536 124.008C37.311 123.72 38.1376 123.576 39.0336 123.576C39.9403 123.576 40.767 123.72 41.5136 124.008C42.271 124.296 42.927 124.707 43.4816 125.24C44.0363 125.763 44.4683 126.376 44.7776 127.08C45.0976 127.784 45.2576 128.557 45.2576 129.4C45.2576 130.243 45.0976 131.021 44.7776 131.736C44.4683 132.44 44.0363 133.053 43.4816 133.576C42.927 134.099 42.271 134.504 41.5136 134.792C40.767 135.08 39.9403 135.224 39.0336 135.224ZM39.0336 132.6C39.4603 132.6 39.855 132.525 40.2176 132.376C40.591 132.227 40.911 132.013 41.1776 131.736C41.455 131.448 41.6683 131.107 41.8176 130.712C41.9776 130.317 42.0576 129.88 42.0576 129.4C42.0576 128.909 41.9776 128.472 41.8176 128.088C41.6683 127.693 41.455 127.357 41.1776 127.08C40.911 126.792 40.591 126.573 40.2176 126.424C39.855 126.275 39.4603 126.2 39.0336 126.2C38.607 126.2 38.207 126.275 37.8336 126.424C37.471 126.573 37.151 126.792 36.8736 127.08C36.607 127.357 36.3936 127.693 36.2336 128.088C36.0843 128.472 36.0096 128.909 36.0096 129.4C36.0096 129.88 36.0843 130.317 36.2336 130.712C36.3936 131.107 36.607 131.448 36.8736 131.736C37.151 132.013 37.471 132.227 37.8336 132.376C38.207 132.525 38.607 132.6 39.0336 132.6ZM46.9169 135V123.8H52.2129C53.4502 123.8 54.5382 124.029 55.4769 124.488C56.4155 124.947 57.1462 125.592 57.6689 126.424C58.2022 127.256 58.4689 128.248 58.4689 129.4C58.4689 130.541 58.2022 131.533 57.6689 132.376C57.1462 133.208 56.4155 133.853 55.4769 134.312C54.5382 134.771 53.4502 135 52.2129 135H46.9169ZM50.0849 132.472H52.0849C52.7249 132.472 53.2795 132.355 53.7489 132.12C54.2289 131.875 54.6022 131.523 54.8689 131.064C55.1355 130.595 55.2689 130.04 55.2689 129.4C55.2689 128.749 55.1355 128.195 54.8689 127.736C54.6022 127.277 54.2289 126.931 53.7489 126.696C53.2795 126.451 52.7249 126.328 52.0849 126.328H50.0849V132.472ZM58.6354 135L63.5794 123.8H66.6994L71.6594 135H68.3634L64.4914 125.352H65.7394L61.8674 135H58.6354ZM61.3394 132.824L62.1554 130.488H67.6274L68.4434 132.824H61.3394ZM72.5575 135V123.8H75.7255V132.488H81.0695V135H72.5575ZM82.3231 135V123.8H85.4911V135H82.3231ZM90.129 135V126.312H86.689V123.8H96.721V126.312H93.297V135H90.129ZM100.468 135V130.264L101.204 132.168L96.1956 123.8H99.5396L103.156 129.864H101.22L104.852 123.8H107.924L102.932 132.168L103.636 130.264V135H100.468ZM107.831 131.608V129.272H112.503V131.608H107.831ZM112.62 135L117.564 123.8H120.684L125.644 135H122.348L118.476 125.352H119.724L115.852 135H112.62ZM115.324 132.824L116.14 130.488H121.612L122.428 132.824H115.324ZM128.685 135L125.053 123.8H128.317L131.373 133.496H129.725L132.941 123.8H135.853L138.893 133.496H137.309L140.461 123.8H143.485L139.853 135H136.461L133.869 126.76H134.781L132.077 135H128.685ZM142.885 135L147.829 123.8H150.949L155.909 135H152.613L148.741 125.352H149.989L146.117 135H142.885ZM145.589 132.824L146.405 130.488H151.877L152.693 132.824H145.589ZM156.808 135V123.8H161.928C162.952 123.8 163.832 123.965 164.568 124.296C165.314 124.627 165.89 125.107 166.296 125.736C166.701 126.355 166.904 127.091 166.904 127.944C166.904 128.787 166.701 129.517 166.296 130.136C165.89 130.744 165.314 131.213 164.568 131.544C163.832 131.864 162.952 132.024 161.928 132.024H158.568L159.976 130.696V135H156.808ZM163.736 135L160.952 130.92H164.328L167.128 135H163.736ZM159.976 131.032L158.568 129.576H161.736C162.397 129.576 162.888 129.432 163.208 129.144C163.538 128.856 163.704 128.456 163.704 127.944C163.704 127.421 163.538 127.016 163.208 126.728C162.888 126.44 162.397 126.296 161.736 126.296H158.568L159.976 124.84V131.032ZM171.563 128.136H176.763V130.504H171.563V128.136ZM171.787 132.552H177.643V135H168.651V123.8H177.435V126.248H171.787V132.552ZM186.97 128.136H192.17V130.504H186.97V128.136ZM187.194 132.552H193.05V135H184.058V123.8H192.842V126.248H187.194V132.552ZM193.562 135L198.458 128.2L198.442 130.456L193.738 123.8H197.306L200.314 128.136L198.794 128.152L201.754 123.8H205.178L200.474 130.328V128.088L205.434 135H201.786L198.73 130.44H200.186L197.178 135H193.562ZM208.41 135V126.312H204.97V123.8H215.002V126.312H211.578V135H208.41ZM216.183 135V123.8H221.303C222.327 123.8 223.207 123.965 223.943 124.296C224.689 124.627 225.265 125.107 225.671 125.736C226.076 126.355 226.279 127.091 226.279 127.944C226.279 128.787 226.076 129.517 225.671 130.136C225.265 130.744 224.689 131.213 223.943 131.544C223.207 131.864 222.327 132.024 221.303 132.024H217.943L219.351 130.696V135H216.183ZM223.111 135L220.327 130.92H223.703L226.503 135H223.111ZM219.351 131.032L217.943 129.576H221.111C221.772 129.576 222.263 129.432 222.583 129.144C222.913 128.856 223.079 128.456 223.079 127.944C223.079 127.421 222.913 127.016 222.583 126.728C222.263 126.44 221.772 126.296 221.111 126.296H217.943L219.351 124.84V131.032ZM226.682 135L231.626 123.8H234.746L239.706 135H236.41L232.538 125.352H233.786L229.914 135H226.682ZM229.386 132.824L230.202 130.488H235.674L236.49 132.824H229.386ZM246.032 135.224C245.147 135.224 244.325 135.085 243.568 134.808C242.821 134.52 242.171 134.115 241.616 133.592C241.072 133.069 240.645 132.456 240.336 131.752C240.027 131.037 239.872 130.253 239.872 129.4C239.872 128.547 240.027 127.768 240.336 127.064C240.645 126.349 241.072 125.731 241.616 125.208C242.171 124.685 242.821 124.285 243.568 124.008C244.325 123.72 245.147 123.576 246.032 123.576C247.067 123.576 247.989 123.757 248.8 124.12C249.621 124.483 250.304 125.005 250.848 125.688L248.832 127.512C248.469 127.085 248.069 126.76 247.632 126.536C247.205 126.312 246.725 126.2 246.192 126.2C245.733 126.2 245.312 126.275 244.928 126.424C244.544 126.573 244.213 126.792 243.936 127.08C243.669 127.357 243.456 127.693 243.296 128.088C243.147 128.483 243.072 128.92 243.072 129.4C243.072 129.88 243.147 130.317 243.296 130.712C243.456 131.107 243.669 131.448 243.936 131.736C244.213 132.013 244.544 132.227 244.928 132.376C245.312 132.525 245.733 132.6 246.192 132.6C246.725 132.6 247.205 132.488 247.632 132.264C248.069 132.04 248.469 131.715 248.832 131.288L250.848 133.112C250.304 133.784 249.621 134.307 248.8 134.68C247.989 135.043 247.067 135.224 246.032 135.224ZM254.551 135V126.312H251.111V123.8H261.143V126.312H257.719V135H254.551ZM262.323 135V123.8H265.491V135H262.323ZM273.393 135.224C272.497 135.224 271.67 135.08 270.913 134.792C270.156 134.504 269.494 134.099 268.929 133.576C268.374 133.043 267.942 132.424 267.633 131.72C267.324 131.016 267.169 130.243 267.169 129.4C267.169 128.557 267.324 127.784 267.633 127.08C267.942 126.376 268.374 125.763 268.929 125.24C269.494 124.707 270.156 124.296 270.913 124.008C271.67 123.72 272.497 123.576 273.393 123.576C274.3 123.576 275.126 123.72 275.873 124.008C276.63 124.296 277.286 124.707 277.841 125.24C278.396 125.763 278.828 126.376 279.137 127.08C279.457 127.784 279.617 128.557 279.617 129.4C279.617 130.243 279.457 131.021 279.137 131.736C278.828 132.44 278.396 133.053 277.841 133.576C277.286 134.099 276.63 134.504 275.873 134.792C275.126 135.08 274.3 135.224 273.393 135.224ZM273.393 132.6C273.82 132.6 274.214 132.525 274.577 132.376C274.95 132.227 275.27 132.013 275.537 131.736C275.814 131.448 276.028 131.107 276.177 130.712C276.337 130.317 276.417 129.88 276.417 129.4C276.417 128.909 276.337 128.472 276.177 128.088C276.028 127.693 275.814 127.357 275.537 127.08C275.27 126.792 274.95 126.573 274.577 126.424C274.214 126.275 273.82 126.2 273.393 126.2C272.966 126.2 272.566 126.275 272.193 126.424C271.83 126.573 271.51 126.792 271.233 127.08C270.966 127.357 270.753 127.693 270.593 128.088C270.444 128.472 270.369 128.909 270.369 129.4C270.369 129.88 270.444 130.317 270.593 130.712C270.753 131.107 270.966 131.448 271.233 131.736C271.51 132.013 271.83 132.227 272.193 132.376C272.566 132.525 272.966 132.6 273.393 132.6ZM281.276 135V123.8H283.884L290.06 131.256H288.828V123.8H291.932V135H289.324L283.148 127.544H284.38V135H281.276ZM297.479 135L302.423 123.8H305.543L310.503 135H307.207L303.335 125.352H304.583L300.711 135H297.479ZM300.183 132.824L300.999 130.488H306.471L307.287 132.824H300.183ZM311.401 135V123.8H314.009L320.185 131.256H318.953V123.8H322.057V135H319.449L313.273 127.544H314.505V135H311.401ZM324.292 135V123.8H329.588C330.825 123.8 331.913 124.029 332.852 124.488C333.791 124.947 334.521 125.592 335.044 126.424C335.577 127.256 335.844 128.248 335.844 129.4C335.844 130.541 335.577 131.533 335.044 132.376C334.521 133.208 333.791 133.853 332.852 134.312C331.913 134.771 330.825 135 329.588 135H324.292ZM327.46 132.472H329.46C330.1 132.472 330.655 132.355 331.124 132.12C331.604 131.875 331.977 131.523 332.244 131.064C332.511 130.595 332.644 130.04 332.644 129.4C332.644 128.749 332.511 128.195 332.244 127.736C331.977 127.277 331.604 126.931 331.124 126.696C330.655 126.451 330.1 126.328 329.46 126.328H327.46V132.472ZM18.12 155V143.8H23.24C24.264 143.8 25.144 143.965 25.88 144.296C26.6267 144.627 27.2027 145.107 27.608 145.736C28.0133 146.355 28.216 147.091 28.216 147.944C28.216 148.787 28.0133 149.517 27.608 150.136C27.2027 150.744 26.6267 151.213 25.88 151.544C25.144 151.864 24.264 152.024 23.24 152.024H19.88L21.288 150.696V155H18.12ZM25.048 155L22.264 150.92H25.64L28.44 155H25.048ZM21.288 151.032L19.88 149.576H23.048C23.7093 149.576 24.2 149.432 24.52 149.144C24.8507 148.856 25.016 148.456 25.016 147.944C25.016 147.421 24.8507 147.016 24.52 146.728C24.2 146.44 23.7093 146.296 23.048 146.296H19.88L21.288 144.84V151.032ZM32.8758 148.136H38.0758V150.504H32.8758V148.136ZM33.0998 152.552H38.9558V155H29.9638V143.8H38.7478V146.248H33.0998V152.552ZM43.0978 155V146.312H39.6578V143.8H49.6898V146.312H46.2658V155H43.0978ZM50.87 155V143.8H55.99C57.014 143.8 57.894 143.965 58.63 144.296C59.3767 144.627 59.9527 145.107 60.358 145.736C60.7633 146.355 60.966 147.091 60.966 147.944C60.966 148.787 60.7633 149.517 60.358 150.136C59.9527 150.744 59.3767 151.213 58.63 151.544C57.894 151.864 57.014 152.024 55.99 152.024H52.63L54.038 150.696V155H50.87ZM57.798 155L55.014 150.92H58.39L61.19 155H57.798ZM54.038 151.032L52.63 149.576H55.798C56.4593 149.576 56.95 149.432 57.27 149.144C57.6007 148.856 57.766 148.456 57.766 147.944C57.766 147.421 57.6007 147.016 57.27 146.728C56.95 146.44 56.4593 146.296 55.798 146.296H52.63L54.038 144.84V151.032ZM62.7138 155V143.8H65.8818V155H62.7138ZM71.0476 148.136H76.2476V150.504H71.0476V148.136ZM71.2716 152.552H77.1276V155H68.1356V143.8H76.9196V146.248H71.2716V152.552ZM77.5416 155L82.4856 143.8H85.6056L90.5656 155H87.2696L83.3976 145.352H84.6456L80.7736 155H77.5416ZM80.2456 152.824L81.0616 150.488H86.5336L87.3496 152.824H80.2456ZM94.2788 155L89.4947 143.8H92.9188L96.9508 153.496H94.9348L99.0628 143.8H102.199L97.3988 155H94.2788ZM101.12 155L106.064 143.8H109.184L114.144 155H110.848L106.976 145.352H108.224L104.352 155H101.12ZM103.824 152.824L104.64 150.488H110.112L110.928 152.824H103.824ZM115.042 155V143.8H118.21V152.488H123.554V155H115.042ZM135.112 155.224C134.216 155.224 133.389 155.08 132.632 154.792C131.874 154.504 131.213 154.099 130.648 153.576C130.093 153.043 129.661 152.424 129.352 151.72C129.042 151.016 128.888 150.243 128.888 149.4C128.888 148.557 129.042 147.784 129.352 147.08C129.661 146.376 130.093 145.763 130.648 145.24C131.213 144.707 131.874 144.296 132.632 144.008C133.389 143.72 134.216 143.576 135.112 143.576C136.018 143.576 136.845 143.72 137.592 144.008C138.349 144.296 139.005 144.707 139.56 145.24C140.114 145.763 140.546 146.376 140.856 147.08C141.176 147.784 141.336 148.557 141.336 149.4C141.336 150.243 141.176 151.021 140.856 151.736C140.546 152.44 140.114 153.053 139.56 153.576C139.005 154.099 138.349 154.504 137.592 154.792C136.845 155.08 136.018 155.224 135.112 155.224ZM135.112 152.6C135.538 152.6 135.933 152.525 136.296 152.376C136.669 152.227 136.989 152.013 137.256 151.736C137.533 151.448 137.746 151.107 137.896 150.712C138.056 150.317 138.136 149.88 138.136 149.4C138.136 148.909 138.056 148.472 137.896 148.088C137.746 147.693 137.533 147.357 137.256 147.08C136.989 146.792 136.669 146.573 136.296 146.424C135.933 146.275 135.538 146.2 135.112 146.2C134.685 146.2 134.285 146.275 133.912 146.424C133.549 146.573 133.229 146.792 132.952 147.08C132.685 147.357 132.472 147.693 132.312 148.088C132.162 148.472 132.088 148.909 132.088 149.4C132.088 149.88 132.162 150.317 132.312 150.712C132.472 151.107 132.685 151.448 132.952 151.736C133.229 152.013 133.549 152.227 133.912 152.376C134.285 152.525 134.685 152.6 135.112 152.6ZM145.939 148.712H151.107V151.16H145.939V148.712ZM146.163 155H142.995V143.8H151.779V146.248H146.163V155ZM157.917 155V143.8H161.085V155H157.917ZM163.339 155V143.8H165.947L172.123 151.256H170.891V143.8H173.995V155H171.387L165.211 147.544H166.443V155H163.339ZM179.173 148.712H184.341V151.16H179.173V148.712ZM179.397 155H176.229V143.8H185.013V146.248H179.397V155ZM192.049 155.224C191.153 155.224 190.327 155.08 189.569 154.792C188.812 154.504 188.151 154.099 187.585 153.576C187.031 153.043 186.599 152.424 186.289 151.72C185.98 151.016 185.825 150.243 185.825 149.4C185.825 148.557 185.98 147.784 186.289 147.08C186.599 146.376 187.031 145.763 187.585 145.24C188.151 144.707 188.812 144.296 189.569 144.008C190.327 143.72 191.153 143.576 192.049 143.576C192.956 143.576 193.783 143.72 194.529 144.008C195.287 144.296 195.943 144.707 196.497 145.24C197.052 145.763 197.484 146.376 197.793 147.08C198.113 147.784 198.273 148.557 198.273 149.4C198.273 150.243 198.113 151.021 197.793 151.736C197.484 152.44 197.052 153.053 196.497 153.576C195.943 154.099 195.287 154.504 194.529 154.792C193.783 155.08 192.956 155.224 192.049 155.224ZM192.049 152.6C192.476 152.6 192.871 152.525 193.233 152.376C193.607 152.227 193.927 152.013 194.193 151.736C194.471 151.448 194.684 151.107 194.833 150.712C194.993 150.317 195.073 149.88 195.073 149.4C195.073 148.909 194.993 148.472 194.833 148.088C194.684 147.693 194.471 147.357 194.193 147.08C193.927 146.792 193.607 146.573 193.233 146.424C192.871 146.275 192.476 146.2 192.049 146.2C191.623 146.2 191.223 146.275 190.849 146.424C190.487 146.573 190.167 146.792 189.889 147.08C189.623 147.357 189.409 147.693 189.249 148.088C189.1 148.472 189.025 148.909 189.025 149.4C189.025 149.88 189.1 150.317 189.249 150.712C189.409 151.107 189.623 151.448 189.889 151.736C190.167 152.013 190.487 152.227 190.849 152.376C191.223 152.525 191.623 152.6 192.049 152.6ZM199.933 155V143.8H205.053C206.077 143.8 206.957 143.965 207.693 144.296C208.439 144.627 209.015 145.107 209.421 145.736C209.826 146.355 210.029 147.091 210.029 147.944C210.029 148.787 209.826 149.517 209.421 150.136C209.015 150.744 208.439 151.213 207.693 151.544C206.957 151.864 206.077 152.024 205.053 152.024H201.693L203.101 150.696V155H199.933ZM206.861 155L204.077 150.92H207.453L210.253 155H206.861ZM203.101 151.032L201.693 149.576H204.861C205.522 149.576 206.013 149.432 206.333 149.144C206.663 148.856 206.829 148.456 206.829 147.944C206.829 147.421 206.663 147.016 206.333 146.728C206.013 146.44 205.522 146.296 204.861 146.296H201.693L203.101 144.84V151.032ZM211.776 155V143.8H214.384L219.024 151.416H217.648L222.16 143.8H224.768L224.8 155H221.888L221.856 148.232H222.352L218.976 153.896H217.568L214.096 148.232H214.704V155H211.776ZM225.698 155L230.642 143.8H233.762L238.722 155H235.426L231.554 145.352H232.802L228.93 155H225.698ZM228.402 152.824L229.218 150.488H234.69L235.506 152.824H228.402ZM241.442 155V146.312H238.002V143.8H248.034V146.312H244.61V155H241.442ZM249.214 155V143.8H252.382V155H249.214ZM260.284 155.224C259.388 155.224 258.561 155.08 257.804 154.792C257.046 154.504 256.385 154.099 255.82 153.576C255.265 153.043 254.833 152.424 254.524 151.72C254.214 151.016 254.06 150.243 254.06 149.4C254.06 148.557 254.214 147.784 254.524 147.08C254.833 146.376 255.265 145.763 255.82 145.24C256.385 144.707 257.046 144.296 257.804 144.008C258.561 143.72 259.388 143.576 260.284 143.576C261.19 143.576 262.017 143.72 262.764 144.008C263.521 144.296 264.177 144.707 264.732 145.24C265.286 145.763 265.718 146.376 266.028 147.08C266.348 147.784 266.508 148.557 266.508 149.4C266.508 150.243 266.348 151.021 266.028 151.736C265.718 152.44 265.286 153.053 264.732 153.576C264.177 154.099 263.521 154.504 262.764 154.792C262.017 155.08 261.19 155.224 260.284 155.224ZM260.284 152.6C260.71 152.6 261.105 152.525 261.468 152.376C261.841 152.227 262.161 152.013 262.428 151.736C262.705 151.448 262.918 151.107 263.068 150.712C263.228 150.317 263.308 149.88 263.308 149.4C263.308 148.909 263.228 148.472 263.068 148.088C262.918 147.693 262.705 147.357 262.428 147.08C262.161 146.792 261.841 146.573 261.468 146.424C261.105 146.275 260.71 146.2 260.284 146.2C259.857 146.2 259.457 146.275 259.084 146.424C258.721 146.573 258.401 146.792 258.124 147.08C257.857 147.357 257.644 147.693 257.484 148.088C257.334 148.472 257.26 148.909 257.26 149.4C257.26 149.88 257.334 150.317 257.484 150.712C257.644 151.107 257.857 151.448 258.124 151.736C258.401 152.013 258.721 152.227 259.084 152.376C259.457 152.525 259.857 152.6 260.284 152.6ZM268.167 155V143.8H270.775L276.951 151.256H275.719V143.8H278.823V155H276.215L270.039 147.544H271.271V155H268.167Z" fill="black"/>
<path fill-rule="evenodd" clip-rule="evenodd" d="M16.96 31V107H40.384V60.7909L63.296 98.168H74.56L97.6312 59.4608L97.856 107H121.152L120.896 17.4H100.032L69.363 69.1675L37.824 17.4H31V31H16.96ZM164.173 71.032V87.416H211.021V107H139.085V17.4H209.357V36.984H164.173V52.088H203.981V71.032H164.173ZM225.085 17.4V107H250.429V83.192H264.264L280.509 107H307.645L288.308 78.824C293.73 76.2156 297.956 72.637 300.989 68.088C304.232 63.1387 305.853 57.2934 305.853 50.552C305.853 43.7254 304.232 37.8374 300.989 32.888C297.746 27.8534 293.138 24.0134 287.165 21.368C281.277 18.7227 274.237 17.4 266.045 17.4H225.085ZM250.429 63.608H264.509C269.8 63.608 273.725 62.456 276.285 60.152C278.93 57.848 280.253 54.648 280.253 50.552C280.253 46.3707 278.93 43.128 276.285 40.824C273.725 38.52 269.8 37.368 264.509 37.368H250.429V63.608ZM319.835 17.4V107H345.179V17.4H319.835Z" fill="black"/>
<rect x="8" y="8" width="16" height="16" fill="black"/>
<rect width="8" height="8" fill="black"/>
</svg>
